<svg xmlns="http://www.w3.org/2000/svg" width="16" height="16" aria-hidden="true"><path d="M15.0784247 15.9571892c.4851892 0 .8786409-.3934517.8786409-.8787645V.91502703c0-.48537452-.3933899-.8787027-.8786409-.8787027H.91502703c-.48537452 0-.8787027.39332818-.8787027.8787027V15.0784247c0 .485251.3932664.8787645.8787027.8787645H15.0784247Z" fill="#3C5A99"/><path d="M11.0214054 15.9571892V9.7917529h2.0694363l.3098687-2.40277993h-2.379305V5.85494981c0-.69566023.1931738-1.16972973 1.1907336-1.16972973l1.2723398-.00055599V2.53559846c-.2200464-.02928186-.9753205-.09470271-1.8540232-.09470271-1.83444016 0-3.09034749 1.1197529-3.09034749 3.17609267v1.77198455H6.46535907V9.7917529h2.07474904v6.1654363h2.48129729Z" fill="#FFF"/></svg>