<svg xmlns="http://www.w3.org/2000/svg" width="16" height="16" aria-hidden="true"><g fill="none" fill-rule="evenodd"><path d="M15.68 8.18181818c0-.56727272-.0509091-1.11272727-.1454546-1.63636364H8V9.64h4.3054546c-.1854546 1-.749091 1.8472727-1.5963637 2.4145454v2.0072728h2.5854545C14.8072727 12.6690909 15.68 10.6181818 15.68 8.18181818Z" fill="#4285F4" fill-rule="nonzero"/><path d="M8 16c2.16 0 3.9709091-.7163636 5.2945454-1.9381818l-2.5854545-2.0072728c-.71636361.48-1.63272726.7636364-2.7090909.7636364-2.08363636 0-3.84727273-1.4072727-4.47636364-3.2981818H.85090909v2.0727273C2.16727273 14.2072727 4.87272727 16 8 16Z" fill="#34A853" fill-rule="nonzero"/><path d="M3.52363636 9.52c-.16-.48-.25090909-.99272727-.25090909-1.52s.09090909-1.04.25090909-1.52V4.40727273H.85090909C.30909091 5.48727273 0 6.70909091 0 8c0 1.29090907.3090909 2.5127273.8509091 3.5927273L3.52363635 9.52Z" fill="#FBBC05" fill-rule="nonzero"/><path d="M8 3.18181818c1.17454542 0 2.2290909.40363636 3.0581818 1.19636364l2.2945455-2.29454546C11.9672727.79272727 10.1563636 0 8 0 4.87272727 0 2.16727273 1.79272727.8509091 4.40727273L3.52363635 6.48C4.15272727 4.58909091 5.91636364 3.18181818 8 3.18181818Z" fill="#EA4335" fill-rule="nonzero"/><path d="M0 0h16v16H0z"/></g></svg>