<svg xmlns="http://www.w3.org/2000/svg" width="16" height="16" fill="none" aria-hidden="true"><path fill="#fff" d="M0 0h16v16H0z"/><path d="M10.0164 2.82125c.4993-.62475.8382-1.464.749-2.32125-.731.036-1.62315.48225-2.1397 1.10775-.46407.5355-.87417 1.41-.76696 2.23125.82019.07125 1.64038-.41025 2.15766-1.01775Zm1.8241 5.379c-.018-1.833 1.4942-2.70525 1.5646-2.75925-.8539-1.263-2.1876-1.4055-2.6502-1.4415-1.19205-.07125-2.20492.6765-2.77396.6765-.56978 0-1.44095-.6405-2.38334-.62325-1.22654.01725-2.36461.71175-2.98687 1.815-1.28052 2.208-.33813 5.48325.90715 7.28105.60502.8895 1.33375 1.869 2.29413 1.8337.90716-.0352 1.26328-.588 2.36611-.588 1.10208 0 1.42221.588 2.38258.57.9956-.018 1.6187-.8902 2.2237-1.7805.6935-1.014.9776-1.9935.9956-2.0468-.0187-.0172-1.9215-.7477-1.9395-2.93695Z" fill="#000"/></svg>