<svg xmlns="http://www.w3.org/2000/svg" viewBox="0 0 24 24" aria-hidden="true"><path d="M12 5.447c2.136 0 2.389.008 3.233.047.78.036 1.204.166 1.485.275.373.145.64.318.92.598.28.28.453.546.598.92.11.282.24.706.275 1.485.038.844.047 1.097.047 3.233s-.008 2.389-.047 3.233c-.036.78-.166 1.204-.275 1.485-.145.373-.318.64-.598.92-.28.28-.546.453-.92.598-.282.11-.706.24-1.485.275-.843.038-1.096.047-3.233.047s-2.389-.008-3.233-.047c-.78-.036-1.204-.166-1.485-.275-.373-.145-.64-.318-.92-.598-.28-.28-.453-.546-.598-.92-.11-.282-.24-.706-.275-1.485-.038-.844-.047-1.097-.047-3.233s.008-2.389.046-3.232c.036-.78.166-1.204.275-1.485.145-.373.318-.64.598-.92.28-.28.546-.453.92-.598.282-.11.706-.24 1.485-.275.845-.04 1.098-.048 3.234-.048m0-1.442c-2.173 0-2.445.009-3.298.048-.852.039-1.433.174-1.942.372-.526.205-.973.478-1.417.923-.445.445-.719.891-.923 1.417-.198.509-.333 1.09-.372 1.942C4.009 9.56 4 9.833 4 12.005c0 2.173.009 2.445.048 3.298.039.852.174 1.433.372 1.942.204.526.478.972.923 1.417.445.445.891.718 1.417.923.509.198 1.09.333 1.942.372.853.039 1.126.048 3.298.048s2.445-.009 3.298-.048c.852-.039 1.433-.174 1.942-.372.526-.204.972-.478 1.417-.923.445-.445.718-.891.923-1.417.198-.509.333-1.09.372-1.942.039-.853.048-1.125.048-3.298s-.009-2.445-.048-3.298c-.039-.852-.174-1.433-.372-1.942-.204-.526-.478-.972-.923-1.417-.445-.445-.891-.718-1. 417-.923-.509-.198-1.09-.333-1.942-.372-.853-.039-1.125-.048-3.298-.048z" fill="white"/><path d="M12 7.897c-2.269 0-4.108 1.839-4.108 4.108S9.731 16.113 12 16.113s4.108-1.839 4.108-4.108S14.269 7.897 12 7.897zm0 6.775c-1.473 0-2.667-1.194-2.667-2.667S10.527 9.339 12 9.339s2.667 1.194 2.667 2.667-1.194 2.666-2.667 2.666z" fill="white"/><circle cx="16.27" cy="7.735" r=".96" fill="white" /></svg>